<svg xmlns="http://www.w3.org/2000/svg" xmlns:xlink="http://www.w3.org/1999/xlink" xmlns:svgjs="http://svgjs.dev/svgjs" version="1.1" viewBox="0 0 800 200"><defs><linearGradient gradientTransform="rotate(270)" x1="50%" y1="0%" x2="50%" y2="100%" id="sssquiggly-grad"><stop stop-color="#575279" stop-opacity="1" offset="0%"/><stop stop-color="#56949f" stop-opacity="1" offset="100%"/></linearGradient></defs><g stroke-width="2.5" stroke="url(#sssquiggly-grad)" fill="none" stroke-linecap="round" transform="matrix(1,0,0,1,-5,-61.0032958984375)"><path d="M10,10C24.583333333333332,11.25,48.75,19.958333333333332,80,16C111.25,12.041666666666668,126.66666666666666,-9,160,-9C193.33333333333334,-9,206.66666666666666,14.75,240,16C273.3333333333333,17.25,286.6666666666667,-4.458333333333334,320,-3C353.3333333333333,-1.5416666666666665,366.6666666666667,22.791666666666668,400,23C433.3333333333333,23.208333333333332,446.6666666666667,-2.833333333333333,480,-2C513.3333333333334,-1.1666666666666667,526.6666666666666,25.541666666666668,560,27C593.3333333333334,28.458333333333332,606.6666666666666,4.166666666666667,640,5C673.3333333333334,5.833333333333333,686.6666666666666,30.583333333333332,720,31C753.3333333333334,31.416666666666668,783.3333333333334,12,800,7" transform="matrix(1,0,0,1,0,150)"/></g></svg>