<svg xmlns="http://www.w3.org/2000/svg" version="1.0" width="752.000000pt" height="752.000000pt"
    viewBox="0 0 752.000000 752.000000" preserveAspectRatio="xMidYMid meet">
    <g transform="translate(0.000000,752.000000) scale(0.100000,-0.100000)" fill="url(#gradient)"
        stroke="none">
        <defs>
            <linearGradient id="gradient" x1="0%" y1="0%" x2="100%" y2="100%">
                <stop offset="0%" style="stop-color: #56949f" />
                <stop offset="100%" style="stop-color: #286983" />
            </linearGradient>
        </defs>
        <path
            d="M1833 3940 c-77 -16 -150 -62 -194 -123 -34 -47 -38 -77 -9 -77 11 0 20 4 20 8 0 21 77 95 122 118 127 64 218 38 357 -104 176 -179 290 -221 423 -158 21 10 87 67 147 126 133 131 212 177 286 167 68 -10 97 -29 222 -148 135 -128 214 -174 297 -173 83 2 134 31 258 152 139 134 191 166 268 167 76 0 120 -24 210 -114 152 -153 236 -205 332 -204 86 1 135 30 259 154 131 130 210 176 284 166 69 -10 101 -31 205 -132 195 -190 307 -227 457 -152 57 29 133 107 133 137 0 32 -32 24 -58 -14 -42 -62 -146 -116 -222 -116 -57 0 -151 61 -268 173 -129 123 -176 150 -263 150 -89 0 -154 -37 -289 -168 -134 -130 -164 -149 -241 -149 -76 -1 -144 41 -273 168 -116 114 -177 149 -262 149 -88 0 -166 -46 -298 -173 -61 -59 -125 -115 -142 -123 -104 -53 -189 -21 -351 135 -121 117 -158 142 -225 157 -104 24 -205 -27 -348 -173 -47 -48 -103 -98 -126 -112 -111 -66 -201 -34 -372 132 -145 141 -225 177 -339 154z" />
    </g>
</svg>