<?xml version="1.0" encoding="UTF-8"?><svg id="Layer_1" xmlns="http://www.w3.org/2000/svg" viewBox="0 0 22 22"><defs><style>.cls-1{fill:#00887a;stroke-width:0px;}</style></defs><path class="cls-1" d="m10,0H2C.9,0,0,.9,0,2v13l3.44-3.34,2.3-2.16,1.35-1.41c1.91-1.94,3.32-3.4,4.91-4.99v-1.09c0-1.1-.9-2-2-2m0,3h-1.5c-.34,1.19-.96,2.3-1.82,3.26l-.02.02,1.13,1.12h0l-.7.69h0l-1.09-1.09-2.5,2.5-.69-.73,2.53-2.49c-.62-.69-1.12-1.46-1.48-2.28h.99c.31.6.69,1.17,1.15,1.68.72-.8,1.24-1.71,1.57-2.68H2v-1h3.5v-1h1v1h3.5v1m9.86,4.62l-1.74,1.61s-4.14,4.05-5.08,4.91l-3,2.94c-.04,1.03.86,1.93,1.96,1.93h7l3,3v-12c0-1.1-1.04-2.38-2.14-2.38m-1.23,10.38l-.85-2.25h-3.56l-.84,2.25h-1.5l1.63-4.32,1.9-1.83,1.14-1.11.62-.6,2.95,7.86h-1.5m-2.61-6.62l.09-.08,1.11,2.95h-2.43l.99-2.65.24-.22Z"/><path class="cls-1" d="m15.08,1.37c-.39,0-.77.15-1.07.44l-2.12,2.12,5.3,5.31,2.12-2.1c.6-.61.6-1.56,0-2.14l-3.17-3.19c-.3-.29-.68-.44-1.06-.44m-3.9,3.27L3.08,12.75l2.56.28.18,2.29,2.28.17.29,2.56,8.1-8.11m-14,3.74l-1.75,6.69,6.7-1.79-.24-2.16-2.31-.17-.18-2.32"/></svg>